Coordinates
version=1
nRows=14
nColumns=24
inDegrees=yes

Units are S.I. units (second, meters, Newtons, ...)
Angles are in degrees.

endheader
time	pelvis_tilt	pelvis_list	pelvis_rotation	pelvis_tx	pelvis_ty	pelvis_tz	hip_flexion_r	hip_adduction_r	hip_rotation_r	knee_angle_r	ankle_angle_r	subtalar_angle_r	mtp_angle_r	hip_flexion_l	hip_adduction_l	hip_rotation_l	knee_angle_l	ankle_angle_l	subtalar_angle_l	mtp_angle_l	lumbar_extension	lumbar_bending	lumbar_rotation
      6.83000000	     -2.69745364	     -1.60157849	     -7.09790699	      1.34391444	      0.67416482	     -0.11960396	     -1.38301387	      6.76045022	      3.98535402	     -5.91676632	     16.22241132	    -11.86318640	      0.00000000	     33.51975740	     -5.17096440	     -5.18477858	    -45.80653559	      0.08044662	    -34.56631398	      0.00000000	    -13.23042494	     -0.63876961	     -2.55664345
      6.84000000	     -2.53663898	     -2.14664756	     -7.34880581	      1.35263445	      0.67290012	     -0.11861742	     -2.85504433	      7.22984860	      4.00888806	     -5.16435889	     16.80840047	    -11.27359198	      0.00000000	     33.63117985	     -5.82813585	     -4.68292689	    -42.10818299	     -0.09422088	    -34.53033032	      0.00000000	    -13.59535212	     -0.32527884	     -1.83560649
      6.85000000	     -2.41064477	     -2.81907094	     -7.55865127	      1.36157581	      0.67135258	     -0.11772945	     -4.39357228	      7.81586220	      4.04939254	     -4.30263513	     17.34985711	    -10.75236012	      0.00000000	     33.70483328	     -6.54594823	     -3.95044727	    -38.47876883	     -0.06783492	    -33.88081780	      0.00000000	    -13.90674980	      0.13405542	     -1.07391783
      6.86000000	     -2.19719688	     -3.50953221	     -7.69290566	      1.37078333	      0.66967696	     -0.11698091	     -6.11694938	      8.38338639	      4.06496957	     -3.33308468	     17.87908984	    -10.15818051	      0.00000000	     33.61319594	     -7.18982892	     -3.03486544	    -34.92648008	      0.13471599	    -32.61946830	      0.00000000	    -14.28917734	      0.61859161	     -0.33909880
      6.87000000	     -2.00031520	     -4.18495248	     -7.77959421	      1.38019816	      0.66779749	     -0.11631260	     -7.84010906	      8.92199402	      4.02835069	     -2.38428627	     18.51800110	     -9.49486437	      0.00000000	     33.49449135	     -7.76517618	     -1.96050367	    -31.51866664	      0.56521170	    -30.71309894	      0.00000000	    -14.61944242	      1.08514309	      0.39386022
      6.88000000	     -1.77288029	     -4.79444849	     -7.82612527	      1.38984221	      0.66580179	     -0.11572292	     -9.63374528	      9.37118489	      4.00870020	     -1.38650473	     18.94115856	     -8.88807852	      0.00000000	     33.27804019	     -8.20832494	     -0.71314367	    -28.23075687	      0.80484080	    -28.86531591	      0.00000000	    -14.93078222	      1.46945078	      1.13174231
      6.89000000	     -1.62682911	     -5.29453699	     -7.87219081	      1.39963124	      0.66363665	     -0.11514544	    -11.25148110	      9.71561581	      3.99616994	     -0.58011198	     19.55449937	     -8.22937151	      0.00000000	     33.11083353	     -8.55050082	      0.54841528	    -25.14672890	      1.13806190	    -26.66108248	      0.00000000	    -15.09606231	      1.72748200	      1.83176031
      6.90000000	     -1.54867113	     -5.71289145	     -7.92259597	      1.40954407	      0.66135214	     -0.11460947	    -12.70260119	      9.98635843	      3.95534247	      0.05015989	     20.13421458	     -7.70223336	      0.00000000	     32.97689336	     -8.79669892	      1.87369323	    -22.29104727	      1.28517450	    -24.80717468	      0.00000000	    -15.13695889	      1.89509269	      2.62604325
      6.91000000	     -1.56204634	     -5.99040056	     -8.03139639	      1.41956169	      0.65900770	     -0.11405123	    -13.91737973	     10.12294116	      3.95664192	      0.42084784	     20.81293710	     -7.15294898	      0.00000000	     32.90488434	     -8.95717696	      2.97172369	    -19.71815344	      1.39865440	    -23.06256013	      0.00000000	    -15.02453260	      1.88936228	      3.40213792
      6.92000000	     -1.75231750	     -6.15324593	     -8.16443497	      1.42968789	      0.65653717	     -0.11355879	    -14.83196730	     10.17301085	      4.12517997	      0.59072417	     21.45479398	     -6.97529823	      0.00000000	     32.99756457	     -9.01034621	      3.91121987	    -17.46651630	      1.26757025	    -21.98529060	      0.00000000	    -14.65199102	      1.78932943	      4.18692386
      6.93000000	     -1.81262050	     -6.22298400	     -8.38301229	      1.43990948	      0.65433315	     -0.11305597	    -15.66217217	     10.10446261	      3.82201662	      0.37041054	     22.19892403	     -6.26755783	      0.00000000	     32.95787012	     -9.05092132	      4.05127486	    -15.67194365	      1.62512688	    -20.45477621	      0.00000000	    -14.43610353	      1.53309361	      5.05179258
      6.94000000	     -2.00333007	     -6.22883022	     -8.66032597	      1.45028476	      0.65211425	     -0.11261418	    -16.30797623	      9.97614574	      3.83627288	      0.05042276	     22.77327293	     -5.99065133	      0.00000000	     33.01565849	     -9.02763364	      3.80777458	    -14.25253293	      1.62715595	    -19.72468049	      0.00000000	    -14.02850906	      1.23378719	      5.96280297
      6.95000000	     -2.22344025	     -6.14505757	     -8.99177704	      1.46088761	      0.64999067	     -0.11226042	    -16.83755971	      9.74353852	      3.87445366	     -0.42442514	     23.13660545	     -6.00264675	      0.00000000	     33.02911376	     -8.90135430	      3.14509243	    -13.19482655	      1.67973241	    -19.54546792	      0.00000000	    -13.55215329	      0.84682214	      6.89615245
      6.96000000	     -2.40244852	     -6.01349289	     -9.33901889	      1.47175711	      0.64803399	     -0.11200843	    -17.36724089	      9.43431046	      3.88406273	     -0.99368890	     23.38221842	     -5.97411119	      0.00000000	     32.93228631	     -8.70576942	      1.98980984	    -12.50067862	      1.69057117	    -19.45788818	      0.00000000	    -13.09802637	      0.41660983	      7.79235822
